{
	"asset":{
		"generator":"Khronos glTF Blender I/O v4.0.44",
		"version":"2.0"
	},
	"scene":0,
	"scenes":[
		{
			"name":"Scene",
			"nodes":[
				0,
				1,
				2,
				3
			]
		}
	],
	"nodes":[
		{
			"mesh":0,
			"name":"Sphere",
			"scale":[
				2.619140625,
				2.619140625,
				2.619140625
			]
		},
		{
			"mesh":1,
			"name":"Sphere.001",
			"scale":[
				0.44721317291259766,
				0.6122979521751404,
				0.44721317291259766
			],
			"translation":[
				-0.9798480868339539,
				0.9471864700317383,
				2.071741819381714
			]
		},
		{
			"mesh":2,
			"name":"Sphere.002",
			"scale":[
				0.44721317291259766,
				0.6122979521751404,
				0.44721317291259766
			],
			"translation":[
				0.9635173678398132,
				0.9471864700317383,
				2.071741819381714
			]
		},
		{
			"mesh":3,
			"name":"Torus",
			"scale":[
				3.500882387161255,
				3.500882387161255,
				3.500882387161255
			],
			"translation":[
				0,
				-1.3607910871505737,
				0
			]
		}
	],
	"materials":[
		{
			"doubleSided":true,
			"name":"Material.004",
			"pbrMetallicRoughness":{
				"baseColorFactor":[
					0.800000011920929,
					0.800000011920929,
					0.800000011920929,
					1
				],
				"metallicFactor":0,
				"roughnessFactor":0.5
			}
		},
		{
			"doubleSided":true,
			"name":"Material.002",
			"pbrMetallicRoughness":{
				"baseColorFactor":[
					0,
					0,
					0,
					1
				],
				"metallicFactor":0,
				"roughnessFactor":0.5
			}
		},
		{
			"doubleSided":true,
			"name":"Material.001",
			"pbrMetallicRoughness":{
				"baseColorFactor":[
					0,
					0,
					0,
					1
				],
				"metallicFactor":0,
				"roughnessFactor":0.5
			}
		},
		{
			"doubleSided":true,
			"name":"Material.003",
			"pbrMetallicRoughness":{
				"baseColorFactor":[
					0.8002121448516846,
					0.6932126879692078,
					0.030988473445177078,
					1
				],
				"metallicFactor":0,
				"roughnessFactor":0.5
			}
		}
	],
	"meshes":[
		{
			"name":"Sphere",
			"primitives":[
				{
					"attributes":{
						"POSITION":0,
						"NORMAL":1,
						"TEXCOORD_0":2
					},
					"indices":3,
					"material":0
				}
			]
		},
		{
			"name":"Sphere.001",
			"primitives":[
				{
					"attributes":{
						"POSITION":4,
						"NORMAL":5,
						"TEXCOORD_0":6
					},
					"indices":7,
					"material":1
				}
			]
		},
		{
			"name":"Sphere.002",
			"primitives":[
				{
					"attributes":{
						"POSITION":8,
						"NORMAL":9,
						"TEXCOORD_0":10
					},
					"indices":7,
					"material":2
				}
			]
		},
		{
			"name":"Torus",
			"primitives":[
				{
					"attributes":{
						"POSITION":11,
						"NORMAL":12,
						"TEXCOORD_0":13
					},
					"indices":14,
					"material":3
				}
			]
		}
	],
	"accessors":[
		{
			"bufferView":0,
			"componentType":5126,
			"count":992,
			"max":[
				0.9999997019767761,
				1,
				0.9999993443489075
			],
			"min":[
				-0.9999990463256836,
				-1.527701497077942,
				-1
			],
			"type":"VEC3"
		},
		{
			"bufferView":1,
			"componentType":5126,
			"count":992,
			"type":"VEC3"
		},
		{
			"bufferView":2,
			"componentType":5126,
			"count":992,
			"type":"VEC2"
		},
		{
			"bufferView":3,
			"componentType":5123,
			"count":1440,
			"type":"SCALAR"
		},
		{
			"bufferView":4,
			"componentType":5126,
			"count":1984,
			"max":[
				0.9999997019767761,
				1,
				0.9999993443489075
			],
			"min":[
				-0.9999990463256836,
				-1,
				-1
			],
			"type":"VEC3"
		},
		{
			"bufferView":5,
			"componentType":5126,
			"count":1984,
			"type":"VEC3"
		},
		{
			"bufferView":6,
			"componentType":5126,
			"count":1984,
			"type":"VEC2"
		},
		{
			"bufferView":7,
			"componentType":5123,
			"count":2880,
			"type":"SCALAR"
		},
		{
			"bufferView":8,
			"componentType":5126,
			"count":1984,
			"max":[
				0.9999997019767761,
				1,
				0.9999993443489075
			],
			"min":[
				-0.9999990463256836,
				-1,
				-1
			],
			"type":"VEC3"
		},
		{
			"bufferView":9,
			"componentType":5126,
			"count":1984,
			"type":"VEC3"
		},
		{
			"bufferView":10,
			"componentType":5126,
			"count":1984,
			"type":"VEC2"
		},
		{
			"bufferView":11,
			"componentType":5126,
			"count":2304,
			"max":[
				1.25,
				0.25,
				1.25
			],
			"min":[
				-1.25,
				-0.25,
				-1.25
			],
			"type":"VEC3"
		},
		{
			"bufferView":12,
			"componentType":5126,
			"count":2304,
			"type":"VEC3"
		},
		{
			"bufferView":13,
			"componentType":5126,
			"count":2304,
			"type":"VEC2"
		},
		{
			"bufferView":14,
			"componentType":5123,
			"count":3456,
			"type":"SCALAR"
		}
	],
	"bufferViews":[
		{
			"buffer":0,
			"byteLength":11904,
			"byteOffset":0,
			"target":34962
		},
		{
			"buffer":0,
			"byteLength":11904,
			"byteOffset":11904,
			"target":34962
		},
		{
			"buffer":0,
			"byteLength":7936,
			"byteOffset":23808,
			"target":34962
		},
		{
			"buffer":0,
			"byteLength":2880,
			"byteOffset":31744,
			"target":34963
		},
		{
			"buffer":0,
			"byteLength":23808,
			"byteOffset":34624,
			"target":34962
		},
		{
			"buffer":0,
			"byteLength":23808,
			"byteOffset":58432,
			"target":34962
		},
		{
			"buffer":0,
			"byteLength":15872,
			"byteOffset":82240,
			"target":34962
		},
		{
			"buffer":0,
			"byteLength":5760,
			"byteOffset":98112,
			"target":34963
		},
		{
			"buffer":0,
			"byteLength":23808,
			"byteOffset":103872,
			"target":34962
		},
		{
			"buffer":0,
			"byteLength":23808,
			"byteOffset":127680,
			"target":34962
		},
		{
			"buffer":0,
			"byteLength":15872,
			"byteOffset":151488,
			"target":34962
		},
		{
			"buffer":0,
			"byteLength":27648,
			"byteOffset":167360,
			"target":34962
		},
		{
			"buffer":0,
			"byteLength":27648,
			"byteOffset":195008,
			"target":34962
		},
		{
			"buffer":0,
			"byteLength":18432,
			"byteOffset":222656,
			"target":34962
		},
		{
			"buffer":0,
			"byteLength":6912,
			"byteOffset":241088,
			"target":34963
		}
	],
	"buffers":[
		{
			"byteLength":248000,
			"uri":"ghost1.bin"
		}
	]
}
