{
	"asset":{
		"generator":"Khronos glTF Blender I/O v4.0.44",
		"version":"2.0"
	},
	"scene":0,
	"scenes":[
		{
			"name":"Scene",
			"nodes":[
				0,
				1,
				2,
				3
			]
		}
	],
	"nodes":[
		{
			"mesh":0,
			"name":"Sphere",
			"scale":[
				2.619140625,
				2.619140625,
				2.619140625
			]
		},
		{
			"mesh":1,
			"name":"Sphere.001",
			"scale":[
				0.44721317291259766,
				0.6122979521751404,
				0.44721317291259766
			],
			"translation":[
				-0.9798480868339539,
				0.9471864700317383,
				2.071741819381714
			]
		},
		{
			"mesh":2,
			"name":"Sphere.002",
			"scale":[
				0.44721317291259766,
				0.6122979521751404,
				0.44721317291259766
			],
			"translation":[
				0.9635173678398132,
				0.9471864700317383,
				2.071741819381714
			]
		},
		{
			"mesh":3,
			"name":"Torus",
			"scale":[
				3.500882387161255,
				3.500882387161255,
				3.500882387161255
			],
			"translation":[
				0,
				-1.3607910871505737,
				0
			]
		}
	],
	"animations":[
		{
			"channels":[
				{
					"sampler":0,
					"target":{
						"node":0,
						"path":"translation"
					}
				},
				{
					"sampler":1,
					"target":{
						"node":0,
						"path":"rotation"
					}
				}
			],
			"name":"SphereAction",
			"samplers":[
				{
					"input":15,
					"interpolation":"LINEAR",
					"output":16
				},
				{
					"input":15,
					"interpolation":"LINEAR",
					"output":17
				}
			]
		},
		{
			"channels":[
				{
					"sampler":0,
					"target":{
						"node":1,
						"path":"translation"
					}
				},
				{
					"sampler":1,
					"target":{
						"node":1,
						"path":"rotation"
					}
				}
			],
			"name":"Sphere.001Action",
			"samplers":[
				{
					"input":15,
					"interpolation":"LINEAR",
					"output":18
				},
				{
					"input":19,
					"interpolation":"STEP",
					"output":20
				}
			]
		},
		{
			"channels":[
				{
					"sampler":0,
					"target":{
						"node":2,
						"path":"translation"
					}
				},
				{
					"sampler":1,
					"target":{
						"node":2,
						"path":"rotation"
					}
				}
			],
			"name":"Sphere.002Action",
			"samplers":[
				{
					"input":15,
					"interpolation":"LINEAR",
					"output":21
				},
				{
					"input":19,
					"interpolation":"STEP",
					"output":22
				}
			]
		},
		{
			"channels":[
				{
					"sampler":0,
					"target":{
						"node":3,
						"path":"translation"
					}
				},
				{
					"sampler":1,
					"target":{
						"node":3,
						"path":"rotation"
					}
				}
			],
			"name":"TorusAction",
			"samplers":[
				{
					"input":15,
					"interpolation":"LINEAR",
					"output":23
				},
				{
					"input":19,
					"interpolation":"STEP",
					"output":24
				}
			]
		}
	],
	"materials":[
		{
			"doubleSided":true,
			"name":"Material.004",
			"pbrMetallicRoughness":{
				"baseColorFactor":[
					0.800000011920929,
					0.800000011920929,
					0.800000011920929,
					1
				],
				"metallicFactor":0,
				"roughnessFactor":0.5
			}
		},
		{
			"doubleSided":true,
			"name":"Material.002",
			"pbrMetallicRoughness":{
				"baseColorFactor":[
					0,
					0,
					0,
					1
				],
				"metallicFactor":0,
				"roughnessFactor":0.5
			}
		},
		{
			"doubleSided":true,
			"name":"Material.001",
			"pbrMetallicRoughness":{
				"baseColorFactor":[
					0,
					0,
					0,
					1
				],
				"metallicFactor":0,
				"roughnessFactor":0.5
			}
		},
		{
			"doubleSided":true,
			"name":"Material.003",
			"pbrMetallicRoughness":{
				"baseColorFactor":[
					0.8002121448516846,
					0.6932126879692078,
					0.030988473445177078,
					1
				],
				"metallicFactor":0,
				"roughnessFactor":0.5
			}
		}
	],
	"meshes":[
		{
			"name":"Sphere",
			"primitives":[
				{
					"attributes":{
						"POSITION":0,
						"NORMAL":1,
						"TEXCOORD_0":2
					},
					"indices":3,
					"material":0
				}
			]
		},
		{
			"name":"Sphere.001",
			"primitives":[
				{
					"attributes":{
						"POSITION":4,
						"NORMAL":5,
						"TEXCOORD_0":6
					},
					"indices":7,
					"material":1
				}
			]
		},
		{
			"name":"Sphere.002",
			"primitives":[
				{
					"attributes":{
						"POSITION":8,
						"NORMAL":9,
						"TEXCOORD_0":10
					},
					"indices":7,
					"material":2
				}
			]
		},
		{
			"name":"Torus",
			"primitives":[
				{
					"attributes":{
						"POSITION":11,
						"NORMAL":12,
						"TEXCOORD_0":13
					},
					"indices":14,
					"material":3
				}
			]
		}
	],
	"accessors":[
		{
			"bufferView":0,
			"componentType":5126,
			"count":3968,
			"max":[
				0.9935949444770813,
				0.9975767135620117,
				0.9935945868492126
			],
			"min":[
				-0.993594229221344,
				-1.4809337854385376,
				-0.9935950040817261
			],
			"type":"VEC3"
		},
		{
			"bufferView":1,
			"componentType":5126,
			"count":3968,
			"type":"VEC3"
		},
		{
			"bufferView":2,
			"componentType":5126,
			"count":3968,
			"type":"VEC2"
		},
		{
			"bufferView":3,
			"componentType":5123,
			"count":5952,
			"type":"SCALAR"
		},
		{
			"bufferView":4,
			"componentType":5126,
			"count":1984,
			"max":[
				0.9999997019767761,
				1,
				0.9999993443489075
			],
			"min":[
				-0.9999990463256836,
				-1,
				-1
			],
			"type":"VEC3"
		},
		{
			"bufferView":5,
			"componentType":5126,
			"count":1984,
			"type":"VEC3"
		},
		{
			"bufferView":6,
			"componentType":5126,
			"count":1984,
			"type":"VEC2"
		},
		{
			"bufferView":7,
			"componentType":5123,
			"count":2880,
			"type":"SCALAR"
		},
		{
			"bufferView":8,
			"componentType":5126,
			"count":1984,
			"max":[
				0.9999997019767761,
				1,
				0.9999993443489075
			],
			"min":[
				-0.9999990463256836,
				-1,
				-1
			],
			"type":"VEC3"
		},
		{
			"bufferView":9,
			"componentType":5126,
			"count":1984,
			"type":"VEC3"
		},
		{
			"bufferView":10,
			"componentType":5126,
			"count":1984,
			"type":"VEC2"
		},
		{
			"bufferView":11,
			"componentType":5126,
			"count":2304,
			"max":[
				1.25,
				0.25,
				1.25
			],
			"min":[
				-1.25,
				-0.25,
				-1.25
			],
			"type":"VEC3"
		},
		{
			"bufferView":12,
			"componentType":5126,
			"count":2304,
			"type":"VEC3"
		},
		{
			"bufferView":13,
			"componentType":5126,
			"count":2304,
			"type":"VEC2"
		},
		{
			"bufferView":14,
			"componentType":5123,
			"count":3456,
			"type":"SCALAR"
		},
		{
			"bufferView":15,
			"componentType":5126,
			"count":40,
			"max":[
				1.6666666666666667
			],
			"min":[
				0.041666666666666664
			],
			"type":"SCALAR"
		},
		{
			"bufferView":16,
			"componentType":5126,
			"count":40,
			"type":"VEC3"
		},
		{
			"bufferView":17,
			"componentType":5126,
			"count":40,
			"type":"VEC4"
		},
		{
			"bufferView":18,
			"componentType":5126,
			"count":40,
			"type":"VEC3"
		},
		{
			"bufferView":19,
			"componentType":5126,
			"count":2,
			"max":[
				1.6666666666666667
			],
			"min":[
				0.041666666666666664
			],
			"type":"SCALAR"
		},
		{
			"bufferView":20,
			"componentType":5126,
			"count":2,
			"type":"VEC4"
		},
		{
			"bufferView":21,
			"componentType":5126,
			"count":40,
			"type":"VEC3"
		},
		{
			"bufferView":22,
			"componentType":5126,
			"count":2,
			"type":"VEC4"
		},
		{
			"bufferView":23,
			"componentType":5126,
			"count":40,
			"type":"VEC3"
		},
		{
			"bufferView":24,
			"componentType":5126,
			"count":2,
			"type":"VEC4"
		}
	],
	"bufferViews":[
		{
			"buffer":0,
			"byteLength":47616,
			"byteOffset":0,
			"target":34962
		},
		{
			"buffer":0,
			"byteLength":47616,
			"byteOffset":47616,
			"target":34962
		},
		{
			"buffer":0,
			"byteLength":31744,
			"byteOffset":95232,
			"target":34962
		},
		{
			"buffer":0,
			"byteLength":11904,
			"byteOffset":126976,
			"target":34963
		},
		{
			"buffer":0,
			"byteLength":23808,
			"byteOffset":138880,
			"target":34962
		},
		{
			"buffer":0,
			"byteLength":23808,
			"byteOffset":162688,
			"target":34962
		},
		{
			"buffer":0,
			"byteLength":15872,
			"byteOffset":186496,
			"target":34962
		},
		{
			"buffer":0,
			"byteLength":5760,
			"byteOffset":202368,
			"target":34963
		},
		{
			"buffer":0,
			"byteLength":23808,
			"byteOffset":208128,
			"target":34962
		},
		{
			"buffer":0,
			"byteLength":23808,
			"byteOffset":231936,
			"target":34962
		},
		{
			"buffer":0,
			"byteLength":15872,
			"byteOffset":255744,
			"target":34962
		},
		{
			"buffer":0,
			"byteLength":27648,
			"byteOffset":271616,
			"target":34962
		},
		{
			"buffer":0,
			"byteLength":27648,
			"byteOffset":299264,
			"target":34962
		},
		{
			"buffer":0,
			"byteLength":18432,
			"byteOffset":326912,
			"target":34962
		},
		{
			"buffer":0,
			"byteLength":6912,
			"byteOffset":345344,
			"target":34963
		},
		{
			"buffer":0,
			"byteLength":160,
			"byteOffset":352256
		},
		{
			"buffer":0,
			"byteLength":480,
			"byteOffset":352416
		},
		{
			"buffer":0,
			"byteLength":640,
			"byteOffset":352896
		},
		{
			"buffer":0,
			"byteLength":480,
			"byteOffset":353536
		},
		{
			"buffer":0,
			"byteLength":8,
			"byteOffset":354016
		},
		{
			"buffer":0,
			"byteLength":32,
			"byteOffset":354024
		},
		{
			"buffer":0,
			"byteLength":480,
			"byteOffset":354056
		},
		{
			"buffer":0,
			"byteLength":32,
			"byteOffset":354536
		},
		{
			"buffer":0,
			"byteLength":480,
			"byteOffset":354568
		},
		{
			"buffer":0,
			"byteLength":32,
			"byteOffset":355048
		}
	],
	"buffers":[
		{
			"byteLength":355080,
			"uri":"ghost2.bin"
		}
	]
}
