{
	"asset":{
		"generator":"Khronos glTF Blender I/O v4.0.44",
		"version":"2.0"
	},
	"scene":0,
	"scenes":[
		{
			"name":"Scene",
			"nodes":[
				0,
				1
			]
		}
	],
	"nodes":[
		{
			"mesh":0,
			"name":"Cube",
			"scale":[
				1,
				0.26137006282806396,
				1
			]
		},
		{
			"mesh":1,
			"name":"Sphere",
			"scale":[
				0.9079242944717407,
				0.9079242944717407,
				0.9079242944717407
			],
			"translation":[
				0.06369304656982422,
				12.97468376159668,
				-0.007892265915870667
			]
		}
	],
	"materials":[
		{
			"doubleSided":true,
			"name":"Material",
			"pbrMetallicRoughness":{
				"baseColorFactor":[
					0.03718903660774231,
					0.03718903660774231,
					0.03718903660774231,
					1
				],
				"metallicFactor":0.6880733966827393,
				"roughnessFactor":0.28899085521698
			}
		},
		{
			"doubleSided":true,
			"name":"Material.002",
			"pbrMetallicRoughness":{
				"baseColorFactor":[
					0.9912669658660889,
					0.6927542686462402,
					0,
					1
				],
				"metallicFactor":0,
				"roughnessFactor":0
			}
		},
		{
			"doubleSided":true,
			"name":"Material.003",
			"pbrMetallicRoughness":{
				"baseColorFactor":[
					0.8013342618942261,
					0.7533382773399353,
					0.017026938498020172,
					1
				],
				"metallicFactor":0,
				"roughnessFactor":0.5
			}
		}
	],
	"meshes":[
		{
			"name":"Cube",
			"primitives":[
				{
					"attributes":{
						"POSITION":0,
						"NORMAL":1,
						"TEXCOORD_0":2
					},
					"indices":3,
					"material":0
				},
				{
					"attributes":{
						"POSITION":4,
						"NORMAL":5,
						"TEXCOORD_0":6
					},
					"indices":7,
					"material":1
				}
			]
		},
		{
			"name":"Sphere",
			"primitives":[
				{
					"attributes":{
						"POSITION":8,
						"NORMAL":9,
						"TEXCOORD_0":10
					},
					"indices":11,
					"material":2
				}
			]
		}
	],
	"accessors":[
		{
			"bufferView":0,
			"componentType":5126,
			"count":474,
			"max":[
				1.130178451538086,
				58.902992248535156,
				1.130178451538086
			],
			"min":[
				-1.130178451538086,
				-1,
				-1.130178451538086
			],
			"type":"VEC3"
		},
		{
			"bufferView":1,
			"componentType":5126,
			"count":474,
			"type":"VEC3"
		},
		{
			"bufferView":2,
			"componentType":5126,
			"count":474,
			"type":"VEC2"
		},
		{
			"bufferView":3,
			"componentType":5123,
			"count":756,
			"type":"SCALAR"
		},
		{
			"bufferView":4,
			"componentType":5126,
			"count":16,
			"max":[
				1.030178427696228,
				54.08366775512695,
				1.030178427696228
			],
			"min":[
				-1.030178427696228,
				45.59459686279297,
				-1.030178427696228
			],
			"type":"VEC3"
		},
		{
			"bufferView":5,
			"componentType":5126,
			"count":16,
			"type":"VEC3"
		},
		{
			"bufferView":6,
			"componentType":5126,
			"count":16,
			"type":"VEC2"
		},
		{
			"bufferView":7,
			"componentType":5123,
			"count":24,
			"type":"SCALAR"
		},
		{
			"bufferView":8,
			"componentType":5126,
			"count":1984,
			"max":[
				0.9999997019767761,
				1,
				0.9999993443489075
			],
			"min":[
				-0.9999990463256836,
				-1,
				-1
			],
			"type":"VEC3"
		},
		{
			"bufferView":9,
			"componentType":5126,
			"count":1984,
			"type":"VEC3"
		},
		{
			"bufferView":10,
			"componentType":5126,
			"count":1984,
			"type":"VEC2"
		},
		{
			"bufferView":11,
			"componentType":5123,
			"count":2880,
			"type":"SCALAR"
		}
	],
	"bufferViews":[
		{
			"buffer":0,
			"byteLength":5688,
			"byteOffset":0,
			"target":34962
		},
		{
			"buffer":0,
			"byteLength":5688,
			"byteOffset":5688,
			"target":34962
		},
		{
			"buffer":0,
			"byteLength":3792,
			"byteOffset":11376,
			"target":34962
		},
		{
			"buffer":0,
			"byteLength":1512,
			"byteOffset":15168,
			"target":34963
		},
		{
			"buffer":0,
			"byteLength":192,
			"byteOffset":16680,
			"target":34962
		},
		{
			"buffer":0,
			"byteLength":192,
			"byteOffset":16872,
			"target":34962
		},
		{
			"buffer":0,
			"byteLength":128,
			"byteOffset":17064,
			"target":34962
		},
		{
			"buffer":0,
			"byteLength":48,
			"byteOffset":17192,
			"target":34963
		},
		{
			"buffer":0,
			"byteLength":23808,
			"byteOffset":17240,
			"target":34962
		},
		{
			"buffer":0,
			"byteLength":23808,
			"byteOffset":41048,
			"target":34962
		},
		{
			"buffer":0,
			"byteLength":15872,
			"byteOffset":64856,
			"target":34962
		},
		{
			"buffer":0,
			"byteLength":5760,
			"byteOffset":80728,
			"target":34963
		}
	],
	"buffers":[
		{
			"byteLength":86488,
			"uri":"light2.bin"
		}
	]
}
