{
	"asset":{
		"generator":"Khronos glTF Blender I/O v4.0.44",
		"version":"2.0"
	},
	"scene":0,
	"scenes":[
		{
			"name":"Scene",
			"nodes":[
				0,
				1
			]
		}
	],
	"nodes":[
		{
			"mesh":0,
			"name":"Cube",
			"scale":[
				1,
				0.26137006282806396,
				1
			]
		},
		{
			"mesh":1,
			"name":"Glass",
			"scale":[
				1,
				0.26137006282806396,
				1
			]
		}
	],
	"materials":[
		{
			"doubleSided":true,
			"name":"Material",
			"pbrMetallicRoughness":{
				"baseColorFactor":[
					0.03718903660774231,
					0.03718903660774231,
					0.03718903660774231,
					1
				],
				"metallicFactor":0.7981651425361633,
				"roughnessFactor":0.2522936165332794
			}
		},
		{
			"doubleSided":true,
			"name":"Material.001",
			"pbrMetallicRoughness":{}
		}
	],
	"meshes":[
		{
			"name":"Cube",
			"primitives":[
				{
					"attributes":{
						"POSITION":0,
						"NORMAL":1,
						"TEXCOORD_0":2
					},
					"indices":3,
					"material":0
				}
			]
		},
		{
			"name":"Glass",
			"primitives":[
				{
					"attributes":{
						"POSITION":4,
						"NORMAL":5,
						"TEXCOORD_0":6
					},
					"indices":7,
					"material":1
				}
			]
		}
	],
	"accessors":[
		{
			"bufferView":0,
			"componentType":5126,
			"count":474,
			"max":[
				1.130178451538086,
				58.902992248535156,
				1.130178451538086
			],
			"min":[
				-1.130178451538086,
				-1,
				-1.130178451538086
			],
			"type":"VEC3"
		},
		{
			"bufferView":1,
			"componentType":5126,
			"count":474,
			"type":"VEC3"
		},
		{
			"bufferView":2,
			"componentType":5126,
			"count":474,
			"type":"VEC2"
		},
		{
			"bufferView":3,
			"componentType":5123,
			"count":756,
			"type":"SCALAR"
		},
		{
			"bufferView":4,
			"componentType":5126,
			"count":16,
			"max":[
				1.030178427696228,
				54.08366775512695,
				1.030178427696228
			],
			"min":[
				-1.030178427696228,
				45.59459686279297,
				-1.030178427696228
			],
			"type":"VEC3"
		},
		{
			"bufferView":5,
			"componentType":5126,
			"count":16,
			"type":"VEC3"
		},
		{
			"bufferView":6,
			"componentType":5126,
			"count":16,
			"type":"VEC2"
		},
		{
			"bufferView":7,
			"componentType":5123,
			"count":24,
			"type":"SCALAR"
		}
	],
	"bufferViews":[
		{
			"buffer":0,
			"byteLength":5688,
			"byteOffset":0,
			"target":34962
		},
		{
			"buffer":0,
			"byteLength":5688,
			"byteOffset":5688,
			"target":34962
		},
		{
			"buffer":0,
			"byteLength":3792,
			"byteOffset":11376,
			"target":34962
		},
		{
			"buffer":0,
			"byteLength":1512,
			"byteOffset":15168,
			"target":34963
		},
		{
			"buffer":0,
			"byteLength":192,
			"byteOffset":16680,
			"target":34962
		},
		{
			"buffer":0,
			"byteLength":192,
			"byteOffset":16872,
			"target":34962
		},
		{
			"buffer":0,
			"byteLength":128,
			"byteOffset":17064,
			"target":34962
		},
		{
			"buffer":0,
			"byteLength":48,
			"byteOffset":17192,
			"target":34963
		}
	],
	"buffers":[
		{
			"byteLength":17240,
			"uri":"light4.bin"
		}
	]
}
