{
	"asset":{
		"generator":"Khronos glTF Blender I/O v3.6.27",
		"version":"2.0"
	},
	"scene":0,
	"scenes":[
		{
			"name":"Scene",
			"nodes":[
				0
			]
		}
	],
	"nodes":[
		{
			"mesh":0,
			"name":"Cube"
		}
	],
	"materials":[
		{
			"doubleSided":true,
			"name":"Material.001",
			"pbrMetallicRoughness":{
				"baseColorFactor":[
					0.5277182459831238,
					0.4041575789451599,
					0.29304444789886475,
					1
				],
				"metallicFactor":0,
				"roughnessFactor":0.5
			}
		}
	],
	"meshes":[
		{
			"name":"Cube.001",
			"primitives":[
				{
					"attributes":{
						"POSITION":0,
						"NORMAL":1
					},
					"indices":2,
					"material":0
				}
			]
		}
	],
	"accessors":[
		{
			"bufferView":0,
			"componentType":5126,
			"count":1208,
			"max":[
				0.3252793550491333,
				0.8588384985923767,
				0.6519891619682312
			],
			"min":[
				-1.9537731409072876,
				-1.050739049911499,
				-0.30115798115730286
			],
			"type":"VEC3"
		},
		{
			"bufferView":1,
			"componentType":5126,
			"count":1208,
			"type":"VEC3"
		},
		{
			"bufferView":2,
			"componentType":5123,
			"count":1812,
			"type":"SCALAR"
		}
	],
	"bufferViews":[
		{
			"buffer":0,
			"byteLength":14496,
			"byteOffset":0,
			"target":34962
		},
		{
			"buffer":0,
			"byteLength":14496,
			"byteOffset":14496,
			"target":34962
		},
		{
			"buffer":0,
			"byteLength":3624,
			"byteOffset":28992,
			"target":34963
		}
	],
	"buffers":[
		{
			"byteLength":32616,
			"uri":"Pointed%20Hand.bin"
		}
	]
}
