{
	"asset":{
		"generator":"Khronos glTF Blender I/O v4.0.44",
		"version":"2.0"
	},
	"scene":0,
	"scenes":[
		{
			"name":"Scene",
			"nodes":[
				0
			]
		}
	],
	"nodes":[
		{
			"mesh":0,
			"name":"Cube"
		}
	],
	"materials":[
		{
			"doubleSided":true,
			"name":"Material.001",
			"pbrMetallicRoughness":{
				"baseColorFactor":[
					0.5277182459831238,
					0.4041575789451599,
					0.29304444789886475,
					1
				],
				"metallicFactor":0,
				"roughnessFactor":0.5
			}
		}
	],
	"meshes":[
		{
			"name":"Cube.001",
			"primitives":[
				{
					"attributes":{
						"POSITION":0,
						"NORMAL":1
					},
					"indices":2,
					"material":0
				}
			]
		}
	],
	"accessors":[
		{
			"bufferView":0,
			"componentType":5126,
			"count":4832,
			"max":[
				0.2912029027938843,
				0.8229540586471558,
				0.6221956610679626
			],
			"min":[
				-1.9134721755981445,
				-1.0262401103973389,
				-0.28570443391799927
			],
			"type":"VEC3"
		},
		{
			"bufferView":1,
			"componentType":5126,
			"count":4832,
			"type":"VEC3"
		},
		{
			"bufferView":2,
			"componentType":5123,
			"count":7248,
			"type":"SCALAR"
		}
	],
	"bufferViews":[
		{
			"buffer":0,
			"byteLength":57984,
			"byteOffset":0,
			"target":34962
		},
		{
			"buffer":0,
			"byteLength":57984,
			"byteOffset":57984,
			"target":34962
		},
		{
			"buffer":0,
			"byteLength":14496,
			"byteOffset":115968,
			"target":34963
		}
	],
	"buffers":[
		{
			"byteLength":130464,
			"uri":"Point_Hand.bin"
		}
	]
}
